<svg width="66" height="17" viewBox="0 0 66 17" fill="none" xmlns="http://www.w3.org/2000/svg">
<path d="M0 16.8864H1.3076L8.30096 2.55863L15.3175 16.8864H16.6251L8.30119 0L0 16.8864Z" fill="white"/>
<path d="M32.5103 16.8864H33.8179L40.8112 2.55863L47.8278 16.8864H49.1354L40.811 0L32.5103 16.8864Z" fill="white"/>
<path d="M31.4236 0H30.116L24.7327 7.18489L19.3585 0H18.0508L23.9702 8.11692L17.5962 16.8873H18.9038L24.7204 9.1505L30.5371 16.8873H31.8447L25.507 8.11692L31.4236 0Z" fill="white"/>
<path d="M56.7141 3.03716e-09C55.033 4.49414e-05 53.3897 0.498589 51.9919 1.4326C50.5941 2.36661 49.5047 3.69413 48.8613 5.24729C48.218 6.80045 48.0497 8.50951 48.3777 10.1583C48.7057 11.8071 49.5152 13.3217 50.704 14.5104C51.8927 15.6991 53.4072 16.5087 55.056 16.8367C56.7049 17.1646 58.4139 16.9963 59.9671 16.353C61.5202 15.7097 62.8478 14.6203 63.7818 13.2225C64.7158 11.8247 65.2143 10.1813 65.2144 8.50022C65.2144 7.38395 64.9946 6.2786 64.5674 5.24729C64.1402 4.21598 63.5141 3.27891 62.7248 2.48958C61.9355 1.70026 60.9984 1.07415 59.9671 0.64698C58.9358 0.219814 57.8304 -2.98363e-05 56.7141 3.03716e-09ZM56.6985 15.8262C55.2464 15.8262 53.827 15.3956 52.6197 14.5888C51.4124 13.7821 50.4715 12.6355 49.9158 11.294C49.3602 9.95248 49.2148 8.47633 49.4981 7.0522C49.7814 5.62808 50.4806 4.31994 51.5073 3.2932C52.5341 2.26646 53.8422 1.56724 55.2663 1.28395C56.6905 1.00066 58.1666 1.14603 59.5081 1.70168C60.8496 2.25732 61.9962 3.19829 62.803 4.40559C63.6097 5.61289 64.0403 7.0323 64.0404 8.48433C64.0402 10.4313 63.2666 12.2985 61.8898 13.6752C60.513 15.0519 58.6457 15.8253 56.6987 15.8253L56.6985 15.8262Z" fill="white"/>
</svg>
