<svg width="51" height="54" viewBox="0 0 51 54" fill="none" xmlns="http://www.w3.org/2000/svg">
<g opacity="0.9">
<path fill-rule="evenodd" clip-rule="evenodd" d="M34.9609 6.15392V8.48243C41.3543 9.13919 44.625 12.8807 44.625 19.6075V38.2157C44.625 45.6988 40.5967 49.5 32.6696 49.5H18.3304C10.4033 49.5 6.375 45.6988 6.375 38.2157V19.6075C6.375 15.1296 7.8163 11.9254 10.7728 10.0547C11.2389 9.71784 11.8418 9.69432 12.3293 9.99397C12.8167 10.2936 13.1046 10.8647 13.0723 11.4682C13.0401 12.0717 12.6933 12.6035 12.1772 12.8409C10.2185 14.0748 9.29457 16.2242 9.29457 19.6075V20.2046H36.2543C37.0606 20.2046 37.7141 20.9085 37.7141 21.7768C37.7141 22.6451 37.0606 23.3491 36.2543 23.3491H9.29457V38.2157C9.29457 43.9275 11.9185 46.2958 18.3304 46.3356H32.6696C38.9891 46.3356 41.687 43.9076 41.687 38.1958V19.5876C41.687 14.6122 39.6359 12.2041 34.9609 11.6269V13.1394C34.8531 13.9456 34.1977 14.5342 33.442 14.5035C32.6862 14.4728 32.0739 13.8327 32.0228 13.02V6.01461C32.0372 5.59391 32.2075 5.19698 32.4958 4.91268C32.7841 4.62838 33.1662 4.48047 33.5565 4.50207C34.3613 4.55537 34.9823 5.28577 34.9609 6.15392ZM18.5062 14.1588C18.2284 14.4542 17.8524 14.6175 17.462 14.6122C16.663 14.5905 16.0288 13.8808 16.0392 13.0201V6.15395C16.1232 5.34847 16.7556 4.73954 17.5082 4.73954C18.2608 4.73954 18.8932 5.34847 18.9772 6.15395V8.32324H27.3294C28.1356 8.32324 28.7892 9.02716 28.7892 9.89548C28.7892 10.7638 28.1356 11.4677 27.3294 11.4677H18.9403V13.04C18.9403 13.4604 18.784 13.8634 18.5062 14.1588ZM34.4069 28.3843C33.3864 28.3843 32.5591 29.2753 32.5591 30.3745C32.5591 31.4736 33.3864 32.3647 34.4069 32.3647C35.4274 32.3647 36.2547 31.4736 36.2547 30.3745C36.2548 29.8432 36.0575 29.3339 35.707 28.9601C35.3565 28.5863 34.8817 28.379 34.3884 28.3843H34.4069ZM23.6889 30.3744C23.6889 29.2753 24.5162 28.3842 25.5368 28.3842C26.5573 28.3842 27.3846 29.2753 27.3846 30.3744C27.3846 31.4736 26.5573 32.3646 25.5368 32.3646C24.5162 32.3646 23.6889 31.4736 23.6889 30.3744ZM16.6857 28.3843C15.6652 28.3843 14.8379 29.2753 14.8379 30.3745C14.8379 31.4736 15.6652 32.3647 16.6857 32.3647C17.7062 32.3647 18.5335 31.4736 18.5335 30.3745C18.5336 29.8432 18.3364 29.3339 17.9858 28.9601C17.6353 28.5863 17.1605 28.379 16.6672 28.3843H16.6857ZM32.5591 38.4347C32.5591 37.3355 33.3864 36.4445 34.4069 36.4445H34.3884C34.8817 36.4392 35.3565 36.6465 35.707 37.0203C36.0575 37.3941 36.2548 37.9034 36.2547 38.4347C36.2547 39.5338 35.4274 40.4249 34.4069 40.4249C33.3864 40.4249 32.5591 39.5338 32.5591 38.4347ZM25.5368 36.4445C24.5162 36.4445 23.6889 37.3355 23.6889 38.4346C23.6889 39.5338 24.5162 40.4248 25.5368 40.4248C26.5573 40.4248 27.3846 39.5338 27.3846 38.4346C27.3846 37.3355 26.5573 36.4445 25.5368 36.4445ZM14.8379 38.4347C14.8379 37.3355 15.6652 36.4445 16.6857 36.4445H16.6672C17.1605 36.4392 17.6353 36.6465 17.9858 37.0203C18.3364 37.3941 18.5336 37.9034 18.5335 38.4347C18.5335 39.5338 17.7062 40.4249 16.6857 40.4249C15.6652 40.4249 14.8379 39.5338 14.8379 38.4347Z" fill="white"/>
</g>
</svg>
