<svg width="36" height="36" viewBox="0 0 36 36" fill="none" xmlns="http://www.w3.org/2000/svg">
<g opacity="0.2">
<path fill-rule="evenodd" clip-rule="evenodd" d="M33 15.8628C33 16.4967 32.4861 17.0106 31.8522 17.0106H31.8391C31.5335 17.0106 31.2409 16.8875 31.0273 16.669C30.8138 16.4505 30.6974 16.1551 30.7045 15.8496V12.3799C30.7045 7.8153 28.1847 5.29551 23.6201 5.29551H12.3799C7.80211 5.29551 5.29551 7.8153 5.29551 12.3799V23.6332C5.29551 28.1979 7.8153 30.7045 12.3799 30.7045H23.6201C28.1979 30.7045 30.7045 28.1847 30.7045 23.6332C30.7045 22.9994 31.2184 22.4855 31.8522 22.4855C32.4861 22.4855 33 22.9994 33 23.6332C33 29.4116 29.4116 33 23.6332 33H12.3799C6.58839 33 3 29.4116 3 23.6332V12.3799C3 6.58839 6.58839 3 12.3799 3H23.6201C29.3852 3 33 6.58839 33 12.3799V15.8628ZM10.4406 25.0317V15.5198V15.4275C10.4509 15.1241 10.5823 14.8375 10.8054 14.6318C11.0285 14.426 11.3248 14.3182 11.628 14.3325C11.9324 14.3428 12.2203 14.4737 12.4282 14.6965C12.636 14.9192 12.7468 15.2154 12.7361 15.5198V25.1109C12.7143 25.7447 12.1827 26.2409 11.5488 26.219C10.9149 26.1972 10.4188 25.6656 10.4406 25.0317ZM16.9048 10.9814V25.0448C16.9048 25.6786 17.4186 26.1925 18.0525 26.1925C18.6864 26.1925 19.2003 25.6786 19.2003 25.0448V10.9814C19.2003 10.3475 18.6864 9.83368 18.0525 9.83368C17.4186 9.83368 16.9048 10.3475 16.9048 10.9814ZM23.2636 25.0316V20.5461C23.2636 19.9122 23.7775 19.3983 24.4114 19.3983C25.0453 19.3983 25.5591 19.9122 25.5591 20.5461V25.0316C25.5591 25.6655 25.0453 26.1793 24.4114 26.1793C23.7775 26.1793 23.2636 25.6655 23.2636 25.0316Z" fill="white"/>
</g>
</svg>
