<svg width="291" height="172" viewBox="0 0 291 172" fill="none" xmlns="http://www.w3.org/2000/svg">
<g filter="url(#filter0_b_3147_2916)">
<rect y="0.762695" width="290.774" height="170.672" rx="10" fill="url(#paint0_linear_3147_2916)"/>
<rect x="0.5" y="1.2627" width="289.774" height="169.672" rx="9.5" stroke="url(#paint1_linear_3147_2916)"/>
</g>
<path d="M20.2657 111.865C20.163 111.865 20.079 111.832 20.0137 111.767C19.9577 111.701 19.9297 111.622 19.9297 111.529V104.277L17.8017 105.915C17.7177 105.971 17.6337 105.994 17.5497 105.985C17.4657 105.966 17.391 105.915 17.3257 105.831L16.7377 105.075C16.6817 104.991 16.6584 104.902 16.6677 104.809C16.6864 104.715 16.7377 104.641 16.8217 104.585L19.9577 102.163C20.0137 102.116 20.0697 102.088 20.1257 102.079C20.1817 102.069 20.2424 102.065 20.3077 102.065H21.5397C21.633 102.065 21.7124 102.097 21.7777 102.163C21.843 102.228 21.8757 102.307 21.8757 102.401V111.529C21.8757 111.622 21.843 111.701 21.7777 111.767C21.7124 111.832 21.633 111.865 21.5397 111.865H20.2657ZM23.5542 111.865C23.4608 111.865 23.3815 111.832 23.3162 111.767C23.2508 111.701 23.2182 111.622 23.2182 111.529V110.815C23.2182 110.731 23.2368 110.633 23.2742 110.521C23.3208 110.399 23.4188 110.278 23.5682 110.157L25.7802 107.959C26.3962 107.473 26.8908 107.063 27.2642 106.727C27.6468 106.381 27.9222 106.069 28.0902 105.789C28.2675 105.499 28.3562 105.215 28.3562 104.935C28.3562 104.515 28.2395 104.174 28.0062 103.913C27.7822 103.651 27.4228 103.521 26.9282 103.521C26.6015 103.521 26.3262 103.591 26.1022 103.731C25.8782 103.861 25.7008 104.039 25.5702 104.263C25.4488 104.487 25.3648 104.734 25.3182 105.005C25.2995 105.126 25.2482 105.21 25.1642 105.257C25.0802 105.303 24.9962 105.327 24.9122 105.327H23.6662C23.5822 105.327 23.5122 105.299 23.4562 105.243C23.4002 105.187 23.3722 105.121 23.3722 105.047C23.3815 104.645 23.4655 104.258 23.6242 103.885C23.7828 103.502 24.0115 103.166 24.3102 102.877C24.6182 102.578 24.9915 102.34 25.4302 102.163C25.8688 101.985 26.3635 101.897 26.9142 101.897C27.6888 101.897 28.3282 102.027 28.8322 102.289C29.3455 102.55 29.7282 102.905 29.9802 103.353C30.2415 103.801 30.3722 104.305 30.3722 104.865C30.3722 105.303 30.2882 105.709 30.1202 106.083C29.9522 106.447 29.7095 106.801 29.3922 107.147C29.0748 107.483 28.6922 107.828 28.2442 108.183L26.2562 110.199H30.2462C30.3488 110.199 30.4282 110.231 30.4842 110.297C30.5495 110.353 30.5822 110.432 30.5822 110.535V111.529C30.5822 111.622 30.5495 111.701 30.4842 111.767C30.4282 111.832 30.3488 111.865 30.2462 111.865H23.5542ZM35.3301 112.005C34.6768 112.005 34.1121 111.925 33.6361 111.767C33.1601 111.608 32.7635 111.403 32.4461 111.151C32.1381 110.889 31.9048 110.609 31.7461 110.311C31.5875 110.003 31.5035 109.699 31.4941 109.401C31.4941 109.317 31.5221 109.251 31.5781 109.205C31.6435 109.149 31.7181 109.121 31.8021 109.121H33.0621C33.1555 109.121 33.2348 109.139 33.3001 109.177C33.3655 109.214 33.4215 109.289 33.4681 109.401C33.5521 109.653 33.6875 109.853 33.8741 110.003C34.0701 110.152 34.2941 110.259 34.5461 110.325C34.7981 110.381 35.0641 110.409 35.3441 110.409C35.9041 110.409 36.3475 110.278 36.6741 110.017C37.0101 109.746 37.1781 109.363 37.1781 108.869C37.1781 108.374 37.0241 108.019 36.7161 107.805C36.4081 107.581 35.9788 107.469 35.4281 107.469H33.9861C33.8835 107.469 33.7995 107.441 33.7341 107.385C33.6688 107.319 33.6361 107.235 33.6361 107.133V106.545C33.6361 106.451 33.6548 106.372 33.6921 106.307C33.7388 106.232 33.7855 106.171 33.8321 106.125L36.3381 103.675H32.3341C32.2315 103.675 32.1475 103.642 32.0821 103.577C32.0261 103.511 31.9981 103.432 31.9981 103.339V102.415C31.9981 102.312 32.0261 102.228 32.0821 102.163C32.1475 102.097 32.2315 102.065 32.3341 102.065H38.3401C38.4428 102.065 38.5268 102.097 38.5921 102.163C38.6575 102.228 38.6901 102.312 38.6901 102.415V103.255C38.6901 103.339 38.6715 103.413 38.6341 103.479C38.5968 103.544 38.5548 103.6 38.5081 103.647L36.0861 106.139L36.2541 106.153C36.8235 106.199 37.3275 106.33 37.7661 106.545C38.2141 106.75 38.5595 107.053 38.8021 107.455C39.0541 107.856 39.1801 108.36 39.1801 108.967C39.1801 109.601 39.0121 110.147 38.6761 110.605C38.3495 111.053 37.8968 111.398 37.3181 111.641C36.7395 111.883 36.0768 112.005 35.3301 112.005ZM45.0445 111.865C44.9512 111.865 44.8718 111.832 44.8065 111.767C44.7412 111.701 44.7085 111.622 44.7085 111.529V109.737H40.2705C40.1678 109.737 40.0838 109.704 40.0185 109.639C39.9625 109.573 39.9345 109.494 39.9345 109.401V108.449C39.9345 108.393 39.9438 108.327 39.9625 108.253C39.9905 108.169 40.0325 108.094 40.0885 108.029L44.2185 102.303C44.3398 102.144 44.5125 102.065 44.7365 102.065H46.2625C46.3558 102.065 46.4352 102.097 46.5005 102.163C46.5658 102.228 46.5985 102.307 46.5985 102.401V108.085H47.8445C47.9565 108.085 48.0405 108.117 48.0965 108.183C48.1618 108.239 48.1945 108.318 48.1945 108.421V109.401C48.1945 109.494 48.1618 109.573 48.0965 109.639C48.0312 109.704 47.9518 109.737 47.8585 109.737H46.5985V111.529C46.5985 111.622 46.5658 111.701 46.5005 111.767C46.4352 111.832 46.3558 111.865 46.2625 111.865H45.0445ZM41.8805 108.141H44.7505V104.095L41.8805 108.141ZM55.5705 112.019C54.7679 112.019 54.0912 111.888 53.5405 111.627C52.9899 111.356 52.5699 111.006 52.2805 110.577C52.0005 110.147 51.8512 109.69 51.8325 109.205C51.8232 109.121 51.8465 109.055 51.9025 109.009C51.9679 108.953 52.0425 108.925 52.1265 108.925H53.4285C53.5312 108.925 53.6152 108.948 53.6805 108.995C53.7552 109.032 53.8112 109.102 53.8485 109.205C53.9419 109.485 54.0725 109.713 54.2405 109.891C54.4179 110.068 54.6185 110.199 54.8425 110.283C55.0759 110.367 55.3185 110.409 55.5705 110.409C55.9065 110.409 56.2099 110.343 56.4805 110.213C56.7605 110.073 56.9845 109.867 57.1525 109.597C57.3205 109.326 57.4045 108.995 57.4045 108.603C57.4045 108.257 57.3252 107.959 57.1665 107.707C57.0079 107.455 56.7885 107.259 56.5085 107.119C56.2379 106.969 55.9252 106.895 55.5705 106.895C55.3092 106.895 55.0945 106.927 54.9265 106.993C54.7585 107.058 54.6139 107.133 54.4925 107.217C54.3805 107.301 54.2779 107.375 54.1845 107.441C54.1005 107.506 54.0025 107.539 53.8905 107.539H52.6025C52.5185 107.539 52.4439 107.511 52.3785 107.455C52.3225 107.389 52.2945 107.315 52.2945 107.231L52.7845 102.443C52.7939 102.321 52.8359 102.228 52.9105 102.163C52.9852 102.097 53.0739 102.065 53.1765 102.065H58.4405C58.5339 102.065 58.6132 102.097 58.6785 102.163C58.7439 102.228 58.7765 102.307 58.7765 102.401V103.339C58.7765 103.432 58.7439 103.511 58.6785 103.577C58.6132 103.642 58.5339 103.675 58.4405 103.675H54.3945L54.1705 105.957C54.3385 105.845 54.5625 105.737 54.8425 105.635C55.1225 105.532 55.5099 105.481 56.0045 105.481C56.4525 105.481 56.8772 105.555 57.2785 105.705C57.6892 105.845 58.0532 106.055 58.3705 106.335C58.6879 106.605 58.9352 106.937 59.1125 107.329C59.2992 107.711 59.3925 108.15 59.3925 108.645C59.3925 109.326 59.2339 109.919 58.9165 110.423C58.5992 110.927 58.1559 111.319 57.5865 111.599C57.0172 111.879 56.3452 112.019 55.5705 112.019ZM64.1542 112.005C63.3515 112.005 62.6608 111.855 62.0822 111.557C61.5035 111.249 61.0555 110.838 60.7382 110.325C60.4208 109.802 60.2622 109.219 60.2622 108.575C60.2622 108.285 60.2995 108.005 60.3742 107.735C60.4488 107.464 60.5468 107.207 60.6682 106.965C60.7895 106.722 60.9062 106.507 61.0182 106.321C61.1395 106.125 61.2468 105.971 61.3402 105.859L63.9022 102.345C63.9395 102.298 63.9955 102.242 64.0702 102.177C64.1448 102.102 64.2475 102.065 64.3782 102.065H65.6802C65.7642 102.065 65.8342 102.097 65.8902 102.163C65.9462 102.219 65.9742 102.289 65.9742 102.373C65.9742 102.41 65.9648 102.447 65.9462 102.485C65.9368 102.513 65.9228 102.536 65.9042 102.555L63.9442 105.271C64.0282 105.243 64.1262 105.224 64.2382 105.215C64.3502 105.205 64.4528 105.201 64.5462 105.201C65.0128 105.21 65.4562 105.303 65.8762 105.481C66.2962 105.649 66.6648 105.882 66.9822 106.181C67.2995 106.479 67.5468 106.829 67.7242 107.231C67.9108 107.632 68.0042 108.071 68.0042 108.547C68.0042 109.163 67.8502 109.737 67.5422 110.269C67.2342 110.791 66.7908 111.211 66.2122 111.529C65.6428 111.846 64.9568 112.005 64.1542 112.005ZM64.1402 110.395C64.4762 110.395 64.7842 110.325 65.0642 110.185C65.3535 110.045 65.5868 109.839 65.7642 109.569C65.9415 109.298 66.0302 108.962 66.0302 108.561C66.0302 108.169 65.9415 107.837 65.7642 107.567C65.5868 107.296 65.3535 107.091 65.0642 106.951C64.7842 106.811 64.4762 106.741 64.1402 106.741C63.8042 106.741 63.4915 106.811 63.2022 106.951C62.9222 107.091 62.6935 107.296 62.5162 107.567C62.3388 107.837 62.2502 108.169 62.2502 108.561C62.2502 108.962 62.3388 109.298 62.5162 109.569C62.6935 109.839 62.9222 110.045 63.2022 110.185C63.4915 110.325 63.8042 110.395 64.1402 110.395ZM69.7643 111.865C69.6803 111.865 69.6103 111.837 69.5543 111.781C69.4983 111.715 69.4703 111.641 69.4703 111.557C69.4703 111.519 69.4797 111.477 69.4983 111.431L72.8723 103.731H68.4763C68.3737 103.731 68.2897 103.698 68.2243 103.633C68.1683 103.567 68.1403 103.488 68.1403 103.395V102.415C68.1403 102.312 68.1683 102.228 68.2243 102.163C68.2897 102.097 68.3737 102.065 68.4763 102.065H74.6223C74.725 102.065 74.8043 102.097 74.8603 102.163C74.9257 102.228 74.9583 102.312 74.9583 102.415V103.283C74.9583 103.413 74.9443 103.525 74.9163 103.619C74.8977 103.703 74.8697 103.791 74.8323 103.885L71.4863 111.529C71.4583 111.594 71.407 111.669 71.3323 111.753C71.267 111.827 71.169 111.865 71.0383 111.865H69.7643ZM79.6479 112.005C79.0319 112.005 78.4812 111.93 77.9959 111.781C77.5106 111.631 77.0999 111.421 76.7639 111.151C76.4372 110.88 76.1852 110.563 76.0079 110.199C75.8399 109.835 75.7559 109.429 75.7559 108.981C75.7559 108.439 75.8866 107.973 76.1479 107.581C76.4186 107.179 76.7686 106.871 77.1979 106.657C76.8526 106.442 76.5819 106.167 76.3859 105.831C76.1992 105.495 76.1059 105.103 76.1059 104.655C76.1059 104.113 76.2412 103.642 76.5119 103.241C76.7919 102.83 77.1932 102.508 77.7159 102.275C78.2479 102.041 78.8919 101.925 79.6479 101.925C80.4039 101.925 81.0432 102.041 81.5659 102.275C82.0886 102.499 82.4852 102.816 82.7559 103.227C83.0266 103.628 83.1619 104.099 83.1619 104.641C83.1619 105.089 83.0686 105.481 82.8819 105.817C82.6952 106.153 82.4339 106.433 82.0979 106.657C82.5366 106.862 82.8866 107.17 83.1479 107.581C83.4092 107.982 83.5399 108.453 83.5399 108.995C83.5399 109.583 83.3859 110.105 83.0779 110.563C82.7792 111.011 82.3359 111.365 81.7479 111.627C81.1692 111.879 80.4692 112.005 79.6479 112.005ZM79.6479 110.549C80.0119 110.549 80.3386 110.488 80.6279 110.367C80.9266 110.236 81.1599 110.054 81.3279 109.821C81.5052 109.587 81.5939 109.312 81.5939 108.995C81.5939 108.668 81.5052 108.393 81.3279 108.169C81.1599 107.935 80.9266 107.758 80.6279 107.637C80.3386 107.506 80.0119 107.441 79.6479 107.441C79.2839 107.441 78.9526 107.506 78.6539 107.637C78.3646 107.758 78.1312 107.935 77.9539 108.169C77.7859 108.393 77.7019 108.668 77.7019 108.995C77.7019 109.312 77.7859 109.587 77.9539 109.821C78.1312 110.054 78.3646 110.236 78.6539 110.367C78.9526 110.488 79.2839 110.549 79.6479 110.549ZM79.6479 106.055C79.9559 106.045 80.2359 105.985 80.4879 105.873C80.7492 105.761 80.9546 105.611 81.1039 105.425C81.2626 105.229 81.3419 104.995 81.3419 104.725C81.3419 104.454 81.2672 104.221 81.1179 104.025C80.9779 103.819 80.7772 103.661 80.5159 103.549C80.2639 103.437 79.9746 103.381 79.6479 103.381C79.3212 103.381 79.0272 103.437 78.7659 103.549C78.5139 103.661 78.3132 103.819 78.1639 104.025C78.0239 104.221 77.9539 104.454 77.9539 104.725C77.9539 104.995 78.0239 105.229 78.1639 105.425C78.3132 105.621 78.5139 105.775 78.7659 105.887C79.0272 105.999 79.3212 106.055 79.6479 106.055ZM90.7606 111.865C90.6579 111.865 90.5739 111.832 90.5086 111.767C90.4526 111.701 90.4246 111.622 90.4246 111.529V104.277L88.2966 105.915C88.2126 105.971 88.1286 105.994 88.0446 105.985C87.9606 105.966 87.8859 105.915 87.8206 105.831L87.2326 105.075C87.1766 104.991 87.1533 104.902 87.1626 104.809C87.1813 104.715 87.2326 104.641 87.3166 104.585L90.4526 102.163C90.5086 102.116 90.5646 102.088 90.6206 102.079C90.6766 102.069 90.7373 102.065 90.8026 102.065H92.0346C92.1279 102.065 92.2073 102.097 92.2726 102.163C92.3379 102.228 92.3706 102.307 92.3706 102.401V111.529C92.3706 111.622 92.3379 111.701 92.2726 111.767C92.2073 111.832 92.1279 111.865 92.0346 111.865H90.7606ZM94.0491 111.865C93.9558 111.865 93.8764 111.832 93.8111 111.767C93.7458 111.701 93.7131 111.622 93.7131 111.529V110.815C93.7131 110.731 93.7318 110.633 93.7691 110.521C93.8158 110.399 93.9138 110.278 94.0631 110.157L96.2751 107.959C96.8911 107.473 97.3858 107.063 97.7591 106.727C98.1418 106.381 98.4171 106.069 98.5851 105.789C98.7624 105.499 98.8511 105.215 98.8511 104.935C98.8511 104.515 98.7344 104.174 98.5011 103.913C98.2771 103.651 97.9178 103.521 97.4231 103.521C97.0964 103.521 96.8211 103.591 96.5971 103.731C96.3731 103.861 96.1958 104.039 96.0651 104.263C95.9438 104.487 95.8598 104.734 95.8131 105.005C95.7944 105.126 95.7431 105.21 95.6591 105.257C95.5751 105.303 95.4911 105.327 95.4071 105.327H94.1611C94.0771 105.327 94.0071 105.299 93.9511 105.243C93.8951 105.187 93.8671 105.121 93.8671 105.047C93.8764 104.645 93.9604 104.258 94.1191 103.885C94.2778 103.502 94.5064 103.166 94.8051 102.877C95.1131 102.578 95.4864 102.34 95.9251 102.163C96.3638 101.985 96.8584 101.897 97.4091 101.897C98.1838 101.897 98.8231 102.027 99.3271 102.289C99.8404 102.55 100.223 102.905 100.475 103.353C100.736 103.801 100.867 104.305 100.867 104.865C100.867 105.303 100.783 105.709 100.615 106.083C100.447 106.447 100.204 106.801 99.8871 107.147C99.5698 107.483 99.1871 107.828 98.7391 108.183L96.7511 110.199H100.741C100.844 110.199 100.923 110.231 100.979 110.297C101.044 110.353 101.077 110.432 101.077 110.535V111.529C101.077 111.622 101.044 111.701 100.979 111.767C100.923 111.832 100.844 111.865 100.741 111.865H94.0491ZM105.825 112.005C105.172 112.005 104.607 111.925 104.131 111.767C103.655 111.608 103.258 111.403 102.941 111.151C102.633 110.889 102.4 110.609 102.241 110.311C102.082 110.003 101.998 109.699 101.989 109.401C101.989 109.317 102.017 109.251 102.073 109.205C102.138 109.149 102.213 109.121 102.297 109.121H103.557C103.65 109.121 103.73 109.139 103.795 109.177C103.86 109.214 103.916 109.289 103.963 109.401C104.047 109.653 104.182 109.853 104.369 110.003C104.565 110.152 104.789 110.259 105.041 110.325C105.293 110.381 105.559 110.409 105.839 110.409C106.399 110.409 106.842 110.278 107.169 110.017C107.505 109.746 107.673 109.363 107.673 108.869C107.673 108.374 107.519 108.019 107.211 107.805C106.903 107.581 106.474 107.469 105.923 107.469H104.481C104.378 107.469 104.294 107.441 104.229 107.385C104.164 107.319 104.131 107.235 104.131 107.133V106.545C104.131 106.451 104.15 106.372 104.187 106.307C104.234 106.232 104.28 106.171 104.327 106.125L106.833 103.675H102.829C102.726 103.675 102.642 103.642 102.577 103.577C102.521 103.511 102.493 103.432 102.493 103.339V102.415C102.493 102.312 102.521 102.228 102.577 102.163C102.642 102.097 102.726 102.065 102.829 102.065H108.835C108.938 102.065 109.022 102.097 109.087 102.163C109.152 102.228 109.185 102.312 109.185 102.415V103.255C109.185 103.339 109.166 103.413 109.129 103.479C109.092 103.544 109.05 103.6 109.003 103.647L106.581 106.139L106.749 106.153C107.318 106.199 107.822 106.33 108.261 106.545C108.709 106.75 109.054 107.053 109.297 107.455C109.549 107.856 109.675 108.36 109.675 108.967C109.675 109.601 109.507 110.147 109.171 110.605C108.844 111.053 108.392 111.398 107.813 111.641C107.234 111.883 106.572 112.005 105.825 112.005ZM115.539 111.865C115.446 111.865 115.367 111.832 115.301 111.767C115.236 111.701 115.203 111.622 115.203 111.529V109.737H110.765C110.663 109.737 110.579 109.704 110.513 109.639C110.457 109.573 110.429 109.494 110.429 109.401V108.449C110.429 108.393 110.439 108.327 110.457 108.253C110.485 108.169 110.527 108.094 110.583 108.029L114.713 102.303C114.835 102.144 115.007 102.065 115.231 102.065H116.757C116.851 102.065 116.93 102.097 116.995 102.163C117.061 102.228 117.093 102.307 117.093 102.401V108.085H118.339C118.451 108.085 118.535 108.117 118.591 108.183C118.657 108.239 118.689 108.318 118.689 108.421V109.401C118.689 109.494 118.657 109.573 118.591 109.639C118.526 109.704 118.447 109.737 118.353 109.737H117.093V111.529C117.093 111.622 117.061 111.701 116.995 111.767C116.93 111.832 116.851 111.865 116.757 111.865H115.539ZM112.375 108.141H115.245V104.095L112.375 108.141ZM126.065 112.019C125.263 112.019 124.586 111.888 124.035 111.627C123.485 111.356 123.065 111.006 122.775 110.577C122.495 110.147 122.346 109.69 122.327 109.205C122.318 109.121 122.341 109.055 122.397 109.009C122.463 108.953 122.537 108.925 122.621 108.925H123.923C124.026 108.925 124.11 108.948 124.175 108.995C124.25 109.032 124.306 109.102 124.343 109.205C124.437 109.485 124.567 109.713 124.735 109.891C124.913 110.068 125.113 110.199 125.337 110.283C125.571 110.367 125.813 110.409 126.065 110.409C126.401 110.409 126.705 110.343 126.975 110.213C127.255 110.073 127.479 109.867 127.647 109.597C127.815 109.326 127.899 108.995 127.899 108.603C127.899 108.257 127.82 107.959 127.661 107.707C127.503 107.455 127.283 107.259 127.003 107.119C126.733 106.969 126.42 106.895 126.065 106.895C125.804 106.895 125.589 106.927 125.421 106.993C125.253 107.058 125.109 107.133 124.987 107.217C124.875 107.301 124.773 107.375 124.679 107.441C124.595 107.506 124.497 107.539 124.385 107.539H123.097C123.013 107.539 122.939 107.511 122.873 107.455C122.817 107.389 122.789 107.315 122.789 107.231L123.279 102.443C123.289 102.321 123.331 102.228 123.405 102.163C123.48 102.097 123.569 102.065 123.671 102.065H128.935C129.029 102.065 129.108 102.097 129.173 102.163C129.239 102.228 129.271 102.307 129.271 102.401V103.339C129.271 103.432 129.239 103.511 129.173 103.577C129.108 103.642 129.029 103.675 128.935 103.675H124.889L124.665 105.957C124.833 105.845 125.057 105.737 125.337 105.635C125.617 105.532 126.005 105.481 126.499 105.481C126.947 105.481 127.372 105.555 127.773 105.705C128.184 105.845 128.548 106.055 128.865 106.335C129.183 106.605 129.43 106.937 129.607 107.329C129.794 107.711 129.887 108.15 129.887 108.645C129.887 109.326 129.729 109.919 129.411 110.423C129.094 110.927 128.651 111.319 128.081 111.599C127.512 111.879 126.84 112.019 126.065 112.019ZM134.649 112.005C133.846 112.005 133.156 111.855 132.577 111.557C131.998 111.249 131.55 110.838 131.233 110.325C130.916 109.802 130.757 109.219 130.757 108.575C130.757 108.285 130.794 108.005 130.869 107.735C130.944 107.464 131.042 107.207 131.163 106.965C131.284 106.722 131.401 106.507 131.513 106.321C131.634 106.125 131.742 105.971 131.835 105.859L134.397 102.345C134.434 102.298 134.49 102.242 134.565 102.177C134.64 102.102 134.742 102.065 134.873 102.065H136.175C136.259 102.065 136.329 102.097 136.385 102.163C136.441 102.219 136.469 102.289 136.469 102.373C136.469 102.41 136.46 102.447 136.441 102.485C136.432 102.513 136.418 102.536 136.399 102.555L134.439 105.271C134.523 105.243 134.621 105.224 134.733 105.215C134.845 105.205 134.948 105.201 135.041 105.201C135.508 105.21 135.951 105.303 136.371 105.481C136.791 105.649 137.16 105.882 137.477 106.181C137.794 106.479 138.042 106.829 138.219 107.231C138.406 107.632 138.499 108.071 138.499 108.547C138.499 109.163 138.345 109.737 138.037 110.269C137.729 110.791 137.286 111.211 136.707 111.529C136.138 111.846 135.452 112.005 134.649 112.005ZM134.635 110.395C134.971 110.395 135.279 110.325 135.559 110.185C135.848 110.045 136.082 109.839 136.259 109.569C136.436 109.298 136.525 108.962 136.525 108.561C136.525 108.169 136.436 107.837 136.259 107.567C136.082 107.296 135.848 107.091 135.559 106.951C135.279 106.811 134.971 106.741 134.635 106.741C134.299 106.741 133.986 106.811 133.697 106.951C133.417 107.091 133.188 107.296 133.011 107.567C132.834 107.837 132.745 108.169 132.745 108.561C132.745 108.962 132.834 109.298 133.011 109.569C133.188 109.839 133.417 110.045 133.697 110.185C133.986 110.325 134.299 110.395 134.635 110.395ZM140.259 111.865C140.175 111.865 140.105 111.837 140.049 111.781C139.993 111.715 139.965 111.641 139.965 111.557C139.965 111.519 139.975 111.477 139.993 111.431L143.367 103.731H138.971C138.869 103.731 138.785 103.698 138.719 103.633C138.663 103.567 138.635 103.488 138.635 103.395V102.415C138.635 102.312 138.663 102.228 138.719 102.163C138.785 102.097 138.869 102.065 138.971 102.065H145.117C145.22 102.065 145.299 102.097 145.355 102.163C145.421 102.228 145.453 102.312 145.453 102.415V103.283C145.453 103.413 145.439 103.525 145.411 103.619C145.393 103.703 145.365 103.791 145.327 103.885L141.981 111.529C141.953 111.594 141.902 111.669 141.827 111.753C141.762 111.827 141.664 111.865 141.533 111.865H140.259ZM150.143 112.005C149.527 112.005 148.976 111.93 148.491 111.781C148.005 111.631 147.595 111.421 147.259 111.151C146.932 110.88 146.68 110.563 146.503 110.199C146.335 109.835 146.251 109.429 146.251 108.981C146.251 108.439 146.381 107.973 146.643 107.581C146.913 107.179 147.263 106.871 147.693 106.657C147.347 106.442 147.077 106.167 146.881 105.831C146.694 105.495 146.601 105.103 146.601 104.655C146.601 104.113 146.736 103.642 147.007 103.241C147.287 102.83 147.688 102.508 148.211 102.275C148.743 102.041 149.387 101.925 150.143 101.925C150.899 101.925 151.538 102.041 152.061 102.275C152.583 102.499 152.98 102.816 153.251 103.227C153.521 103.628 153.657 104.099 153.657 104.641C153.657 105.089 153.563 105.481 153.377 105.817C153.19 106.153 152.929 106.433 152.593 106.657C153.031 106.862 153.381 107.17 153.643 107.581C153.904 107.982 154.035 108.453 154.035 108.995C154.035 109.583 153.881 110.105 153.573 110.563C153.274 111.011 152.831 111.365 152.243 111.627C151.664 111.879 150.964 112.005 150.143 112.005ZM150.143 110.549C150.507 110.549 150.833 110.488 151.123 110.367C151.421 110.236 151.655 110.054 151.823 109.821C152 109.587 152.089 109.312 152.089 108.995C152.089 108.668 152 108.393 151.823 108.169C151.655 107.935 151.421 107.758 151.123 107.637C150.833 107.506 150.507 107.441 150.143 107.441C149.779 107.441 149.447 107.506 149.149 107.637C148.859 107.758 148.626 107.935 148.449 108.169C148.281 108.393 148.197 108.668 148.197 108.995C148.197 109.312 148.281 109.587 148.449 109.821C148.626 110.054 148.859 110.236 149.149 110.367C149.447 110.488 149.779 110.549 150.143 110.549ZM150.143 106.055C150.451 106.045 150.731 105.985 150.983 105.873C151.244 105.761 151.449 105.611 151.599 105.425C151.757 105.229 151.837 104.995 151.837 104.725C151.837 104.454 151.762 104.221 151.613 104.025C151.473 103.819 151.272 103.661 151.011 103.549C150.759 103.437 150.469 103.381 150.143 103.381C149.816 103.381 149.522 103.437 149.261 103.549C149.009 103.661 148.808 103.819 148.659 104.025C148.519 104.221 148.449 104.454 148.449 104.725C148.449 104.995 148.519 105.229 148.659 105.425C148.808 105.621 149.009 105.775 149.261 105.887C149.522 105.999 149.816 106.055 150.143 106.055Z" fill="white"/>
<path d="M16.7177 29.4111C16.659 29.4111 16.604 29.3891 16.5527 29.3451C16.5087 29.2938 16.4867 29.2388 16.4867 29.1801C16.4867 29.1435 16.4904 29.1105 16.4977 29.0811L19.0827 22.0191C19.1047 21.9385 19.1487 21.8688 19.2147 21.8101C19.288 21.7441 19.387 21.7111 19.5117 21.7111H21.1397C21.2644 21.7111 21.3597 21.7441 21.4257 21.8101C21.499 21.8688 21.5467 21.9385 21.5687 22.0191L24.1427 29.0811C24.1574 29.1105 24.1647 29.1435 24.1647 29.1801C24.1647 29.2388 24.139 29.2938 24.0877 29.3451C24.0437 29.3891 23.9887 29.4111 23.9227 29.4111H22.5697C22.4597 29.4111 22.3754 29.3855 22.3167 29.3341C22.2654 29.2755 22.2324 29.2241 22.2177 29.1801L21.7887 28.0581H18.8517L18.4337 29.1801C18.419 29.2241 18.386 29.2755 18.3347 29.3341C18.2834 29.3855 18.1954 29.4111 18.0707 29.4111H16.7177ZM19.3027 26.4741H21.3487L20.3147 23.5701L19.3027 26.4741ZM25.0867 29.4111C25.0061 29.4111 24.9401 29.3855 24.8887 29.3341C24.8374 29.2828 24.8117 29.2168 24.8117 29.1361V21.9861C24.8117 21.9055 24.8374 21.8395 24.8887 21.7881C24.9401 21.7368 25.0061 21.7111 25.0867 21.7111H26.5607C26.6414 21.7111 26.7074 21.7368 26.7587 21.7881C26.8101 21.8395 26.8357 21.9055 26.8357 21.9861V29.1361C26.8357 29.2168 26.8101 29.2828 26.7587 29.3341C26.7074 29.3855 26.6414 29.4111 26.5607 29.4111H25.0867ZM27.7511 29.4111C27.6851 29.4111 27.6265 29.3891 27.5751 29.3451C27.5311 29.2938 27.5091 29.2388 27.5091 29.1801C27.5091 29.1581 27.5128 29.1361 27.5201 29.1141C27.5275 29.0921 27.5385 29.0701 27.5531 29.0481L29.9511 25.4841L27.7291 22.0741C27.7071 22.0301 27.6961 21.9861 27.6961 21.9421C27.6961 21.8835 27.7181 21.8321 27.7621 21.7881C27.8061 21.7368 27.8611 21.7111 27.9271 21.7111H29.5221C29.6321 21.7111 29.7165 21.7405 29.7751 21.7991C29.8338 21.8505 29.8741 21.8981 29.8961 21.9421L31.2161 23.9441L32.5471 21.9421C32.5765 21.8981 32.6205 21.8505 32.6791 21.7991C32.7378 21.7405 32.8221 21.7111 32.9321 21.7111H34.4391C34.5051 21.7111 34.5601 21.7368 34.6041 21.7881C34.6555 21.8321 34.6811 21.8835 34.6811 21.9421C34.6811 21.9935 34.6665 22.0375 34.6371 22.0741L32.4041 25.4731L34.8241 29.0481C34.8388 29.0701 34.8461 29.0921 34.8461 29.1141C34.8535 29.1361 34.8571 29.1581 34.8571 29.1801C34.8571 29.2388 34.8351 29.2938 34.7911 29.3451C34.7471 29.3891 34.6921 29.4111 34.6261 29.4111H32.9871C32.8771 29.4111 32.7891 29.3855 32.7231 29.3341C32.6645 29.2755 32.6241 29.2278 32.6021 29.1911L31.1391 27.0791L29.7091 29.1911C29.6871 29.2278 29.6468 29.2755 29.5881 29.3341C29.5295 29.3855 29.4451 29.4111 29.3351 29.4111H27.7511ZM38.3351 29.5211C37.6604 29.5211 37.0738 29.4111 36.5751 29.1911C36.0764 28.9711 35.6878 28.6411 35.4091 28.2011C35.1304 27.7538 34.9764 27.1965 34.9471 26.5291C34.9398 26.2138 34.9361 25.8985 34.9361 25.5831C34.9361 25.2678 34.9398 24.9488 34.9471 24.6261C34.9764 23.9661 35.1304 23.4125 35.4091 22.9651C35.6951 22.5105 36.0874 22.1695 36.5861 21.9421C37.0848 21.7148 37.6678 21.6011 38.3351 21.6011C38.9951 21.6011 39.5744 21.7148 40.0731 21.9421C40.5791 22.1695 40.9751 22.5105 41.2611 22.9651C41.5471 23.4125 41.7011 23.9661 41.7231 24.6261C41.7378 24.9488 41.7451 25.2678 41.7451 25.5831C41.7451 25.8985 41.7378 26.2138 41.7231 26.5291C41.6938 27.1965 41.5398 27.7538 41.2611 28.2011C40.9824 28.6411 40.5938 28.9711 40.0951 29.1911C39.5964 29.4111 39.0098 29.5211 38.3351 29.5211ZM38.3351 27.9371C38.7238 27.9371 39.0391 27.8198 39.2811 27.5851C39.5304 27.3505 39.6624 26.9765 39.6771 26.4631C39.6918 26.1405 39.6991 25.8361 39.6991 25.5501C39.6991 25.2641 39.6918 24.9671 39.6771 24.6591C39.6624 24.3145 39.5964 24.0358 39.4791 23.8231C39.3691 23.6031 39.2151 23.4418 39.0171 23.3391C38.8191 23.2365 38.5918 23.1851 38.3351 23.1851C38.0858 23.1851 37.8621 23.2365 37.6641 23.3391C37.4661 23.4418 37.3084 23.6031 37.1911 23.8231C37.0738 24.0358 37.0078 24.3145 36.9931 24.6591C36.9858 24.9671 36.9821 25.2641 36.9821 25.5501C36.9821 25.8361 36.9858 26.1405 36.9931 26.4631C37.0151 26.9765 37.1471 27.3505 37.3891 27.5851C37.6311 27.8198 37.9464 27.9371 38.3351 27.9371Z" fill="white"/>
<path d="M247.913 87.6523C247.705 87.6523 247.521 87.6183 247.361 87.5503C247.205 87.4783 247.075 87.3783 246.971 87.2503C246.867 87.1223 246.787 86.9723 246.731 86.8003C246.675 86.6243 246.643 86.4323 246.635 86.2243C246.631 86.1523 246.629 86.0883 246.629 86.0323C246.629 85.9723 246.631 85.9063 246.635 85.8343C246.643 85.6343 246.673 85.4483 246.725 85.2763C246.781 85.1043 246.861 84.9543 246.965 84.8263C247.073 84.6943 247.205 84.5923 247.361 84.5203C247.521 84.4483 247.705 84.4123 247.913 84.4123C248.129 84.4123 248.311 84.4503 248.459 84.5263C248.611 84.5983 248.737 84.6923 248.837 84.8083V83.4763C248.837 83.4363 248.849 83.4023 248.873 83.3743C248.901 83.3463 248.937 83.3323 248.981 83.3323H249.491C249.531 83.3323 249.565 83.3463 249.593 83.3743C249.621 83.4023 249.635 83.4363 249.635 83.4763V87.4483C249.635 87.4883 249.621 87.5223 249.593 87.5503C249.565 87.5783 249.531 87.5923 249.491 87.5923H249.017C248.973 87.5923 248.937 87.5783 248.909 87.5503C248.885 87.5223 248.873 87.4883 248.873 87.4483V87.2263C248.773 87.3503 248.645 87.4523 248.489 87.5323C248.337 87.6123 248.145 87.6523 247.913 87.6523ZM248.135 87.0103C248.303 87.0103 248.437 86.9723 248.537 86.8963C248.637 86.8203 248.711 86.7243 248.759 86.6083C248.807 86.4883 248.833 86.3663 248.837 86.2423C248.841 86.1703 248.843 86.0943 248.843 86.0143C248.843 85.9303 248.841 85.8523 248.837 85.7803C248.833 85.6603 248.805 85.5463 248.753 85.4383C248.701 85.3263 248.625 85.2343 248.525 85.1623C248.425 85.0903 248.295 85.0543 248.135 85.0543C247.967 85.0543 247.833 85.0923 247.733 85.1683C247.637 85.2403 247.567 85.3363 247.523 85.4563C247.479 85.5763 247.453 85.7083 247.445 85.8523C247.441 85.9723 247.441 86.0923 247.445 86.2123C247.453 86.3563 247.479 86.4883 247.523 86.6083C247.567 86.7283 247.637 86.8263 247.733 86.9023C247.833 86.9743 247.967 87.0103 248.135 87.0103ZM251.659 87.6523C251.215 87.6523 250.863 87.5243 250.603 87.2683C250.343 87.0123 250.203 86.6483 250.183 86.1763C250.179 86.1363 250.177 86.0863 250.177 86.0263C250.177 85.9623 250.179 85.9123 250.183 85.8763C250.199 85.5763 250.267 85.3163 250.387 85.0963C250.511 84.8763 250.681 84.7083 250.897 84.5923C251.113 84.4723 251.367 84.4123 251.659 84.4123C251.983 84.4123 252.255 84.4803 252.475 84.6163C252.695 84.7483 252.861 84.9343 252.973 85.1743C253.085 85.4103 253.141 85.6843 253.141 85.9963V86.1223C253.141 86.1623 253.127 86.1963 253.099 86.2243C253.071 86.2523 253.035 86.2663 252.991 86.2663H250.999C250.999 86.2663 250.999 86.2723 250.999 86.2843C250.999 86.2963 250.999 86.3063 250.999 86.3143C251.003 86.4543 251.029 86.5843 251.077 86.7043C251.129 86.8203 251.203 86.9143 251.299 86.9863C251.399 87.0583 251.517 87.0943 251.653 87.0943C251.765 87.0943 251.859 87.0783 251.935 87.0463C252.011 87.0103 252.073 86.9703 252.121 86.9263C252.169 86.8823 252.203 86.8463 252.223 86.8183C252.259 86.7703 252.287 86.7423 252.307 86.7343C252.331 86.7223 252.365 86.7163 252.409 86.7163H252.925C252.965 86.7163 252.997 86.7283 253.021 86.7523C253.049 86.7763 253.061 86.8063 253.057 86.8423C253.053 86.9063 253.019 86.9843 252.955 87.0763C252.895 87.1683 252.807 87.2583 252.691 87.3463C252.575 87.4343 252.429 87.5083 252.253 87.5683C252.081 87.6243 251.883 87.6523 251.659 87.6523ZM250.999 85.7623H252.325V85.7443C252.325 85.5883 252.299 85.4523 252.247 85.3363C252.195 85.2203 252.119 85.1283 252.019 85.0603C251.919 84.9923 251.799 84.9583 251.659 84.9583C251.519 84.9583 251.399 84.9923 251.299 85.0603C251.199 85.1283 251.123 85.2203 251.071 85.3363C251.023 85.4523 250.999 85.5883 250.999 85.7443V85.7623ZM255.385 87.6523C255.153 87.6523 254.959 87.6123 254.803 87.5323C254.651 87.4523 254.525 87.3503 254.425 87.2263V87.4483C254.425 87.4883 254.411 87.5223 254.383 87.5503C254.359 87.5783 254.325 87.5923 254.281 87.5923H253.807C253.767 87.5923 253.733 87.5783 253.705 87.5503C253.677 87.5223 253.663 87.4883 253.663 87.4483V83.4763C253.663 83.4363 253.677 83.4023 253.705 83.3743C253.733 83.3463 253.767 83.3323 253.807 83.3323H254.317C254.361 83.3323 254.395 83.3463 254.419 83.3743C254.447 83.4023 254.461 83.4363 254.461 83.4763V84.8083C254.561 84.6923 254.685 84.5983 254.833 84.5263C254.985 84.4503 255.169 84.4123 255.385 84.4123C255.597 84.4123 255.781 84.4483 255.937 84.5203C256.093 84.5923 256.223 84.6943 256.327 84.8263C256.435 84.9543 256.517 85.1043 256.573 85.2763C256.629 85.4483 256.659 85.6343 256.663 85.8343C256.667 85.9063 256.669 85.9723 256.669 86.0323C256.669 86.0883 256.667 86.1523 256.663 86.2243C256.655 86.4323 256.623 86.6243 256.567 86.8003C256.511 86.9723 256.431 87.1223 256.327 87.2503C256.223 87.3783 256.093 87.4783 255.937 87.5503C255.781 87.6183 255.597 87.6523 255.385 87.6523ZM255.163 87.0103C255.335 87.0103 255.469 86.9743 255.565 86.9023C255.661 86.8263 255.729 86.7283 255.769 86.6083C255.813 86.4883 255.839 86.3563 255.847 86.2123C255.855 86.0923 255.855 85.9723 255.847 85.8523C255.839 85.7083 255.813 85.5763 255.769 85.4563C255.729 85.3363 255.661 85.2403 255.565 85.1683C255.469 85.0923 255.335 85.0543 255.163 85.0543C255.003 85.0543 254.873 85.0903 254.773 85.1623C254.673 85.2343 254.597 85.3263 254.545 85.4383C254.493 85.5463 254.465 85.6603 254.461 85.7803C254.457 85.8523 254.455 85.9303 254.455 86.0143C254.455 86.0943 254.457 86.1703 254.461 86.2423C254.469 86.3663 254.495 86.4883 254.539 86.6083C254.587 86.7243 254.661 86.8203 254.761 86.8963C254.865 86.9723 254.999 87.0103 255.163 87.0103ZM257.361 87.5923C257.321 87.5923 257.287 87.5783 257.259 87.5503C257.231 87.5223 257.217 87.4883 257.217 87.4483V84.6163C257.217 84.5763 257.231 84.5423 257.259 84.5143C257.287 84.4863 257.321 84.4723 257.361 84.4723H257.859C257.903 84.4723 257.937 84.4863 257.961 84.5143C257.989 84.5423 258.003 84.5763 258.003 84.6163V87.4483C258.003 87.4883 257.989 87.5223 257.961 87.5503C257.937 87.5783 257.903 87.5923 257.859 87.5923H257.361ZM257.337 83.9563C257.293 83.9563 257.257 83.9443 257.229 83.9203C257.205 83.8923 257.193 83.8563 257.193 83.8123V83.3803C257.193 83.3403 257.205 83.3063 257.229 83.2783C257.257 83.2503 257.293 83.2363 257.337 83.2363H257.883C257.927 83.2363 257.963 83.2503 257.991 83.2783C258.019 83.3063 258.033 83.3403 258.033 83.3803V83.8123C258.033 83.8563 258.019 83.8923 257.991 83.9203C257.963 83.9443 257.927 83.9563 257.883 83.9563H257.337ZM260.089 87.5923C259.849 87.5923 259.647 87.5503 259.483 87.4663C259.319 87.3823 259.197 87.2583 259.117 87.0943C259.037 86.9263 258.997 86.7183 258.997 86.4703V85.1083H258.523C258.483 85.1083 258.449 85.0943 258.421 85.0663C258.393 85.0383 258.379 85.0043 258.379 84.9643V84.6163C258.379 84.5763 258.393 84.5423 258.421 84.5143C258.449 84.4863 258.483 84.4723 258.523 84.4723H258.997V83.4763C258.997 83.4363 259.009 83.4023 259.033 83.3743C259.061 83.3463 259.097 83.3323 259.141 83.3323H259.627C259.667 83.3323 259.701 83.3463 259.729 83.3743C259.757 83.4023 259.771 83.4363 259.771 83.4763V84.4723H260.521C260.561 84.4723 260.595 84.4863 260.623 84.5143C260.651 84.5423 260.665 84.5763 260.665 84.6163V84.9643C260.665 85.0043 260.651 85.0383 260.623 85.0663C260.595 85.0943 260.561 85.1083 260.521 85.1083H259.771V86.4103C259.771 86.5743 259.799 86.7023 259.855 86.7943C259.915 86.8863 260.017 86.9323 260.161 86.9323H260.575C260.615 86.9323 260.649 86.9463 260.677 86.9743C260.705 87.0023 260.719 87.0363 260.719 87.0763V87.4483C260.719 87.4883 260.705 87.5223 260.677 87.5503C260.649 87.5783 260.615 87.5923 260.575 87.5923H260.089Z" fill="white"/>
<path d="M19.3377 157.315C18.9977 157.315 18.6744 157.275 18.3677 157.195C18.0677 157.108 17.7977 156.978 17.5577 156.805C17.3244 156.625 17.1377 156.401 16.9977 156.135C16.8577 155.868 16.781 155.555 16.7677 155.195C16.7677 155.135 16.7877 155.085 16.8277 155.045C16.8677 154.998 16.921 154.975 16.9877 154.975H17.5277C17.601 154.975 17.6577 154.998 17.6977 155.045C17.7444 155.085 17.7744 155.138 17.7877 155.205C17.8144 155.505 17.901 155.748 18.0477 155.935C18.1944 156.115 18.381 156.248 18.6077 156.335C18.8344 156.421 19.0844 156.465 19.3577 156.465C19.8644 156.465 20.251 156.298 20.5177 155.965C20.7844 155.631 20.9177 155.188 20.9177 154.635V151.085H17.3677C17.301 151.085 17.2444 151.065 17.1977 151.025C17.1577 150.978 17.1377 150.921 17.1377 150.855V150.445C17.1377 150.378 17.1577 150.325 17.1977 150.285C17.2444 150.238 17.301 150.215 17.3677 150.215H21.6777C21.751 150.215 21.8077 150.238 21.8477 150.285C21.8944 150.325 21.9177 150.381 21.9177 150.455V154.655C21.9177 155.195 21.8144 155.665 21.6077 156.065C21.401 156.465 21.1077 156.775 20.7277 156.995C20.3477 157.208 19.8844 157.315 19.3377 157.315ZM25.9056 157.315C25.3389 157.315 24.8523 157.218 24.4456 157.025C24.0389 156.825 23.7256 156.521 23.5056 156.115C23.2856 155.701 23.1623 155.185 23.1356 154.565C23.1289 154.271 23.1256 153.991 23.1256 153.725C23.1256 153.451 23.1289 153.168 23.1356 152.875C23.1623 152.261 23.2889 151.751 23.5156 151.345C23.7489 150.931 24.0689 150.625 24.4756 150.425C24.8889 150.218 25.3656 150.115 25.9056 150.115C26.4523 150.115 26.9289 150.218 27.3356 150.425C27.7489 150.625 28.0723 150.931 28.3056 151.345C28.5389 151.751 28.6656 152.261 28.6856 152.875C28.6989 153.168 28.7056 153.451 28.7056 153.725C28.7056 153.991 28.6989 154.271 28.6856 154.565C28.6656 155.185 28.5423 155.701 28.3156 156.115C28.0956 156.521 27.7823 156.825 27.3756 157.025C26.9689 157.218 26.4789 157.315 25.9056 157.315ZM25.9056 156.465C26.4189 156.465 26.8356 156.311 27.1556 156.005C27.4823 155.698 27.6589 155.201 27.6856 154.515C27.6989 154.215 27.7056 153.948 27.7056 153.715C27.7056 153.475 27.6989 153.208 27.6856 152.915C27.6723 152.455 27.5856 152.081 27.4256 151.795C27.2723 151.508 27.0656 151.298 26.8056 151.165C26.5456 151.031 26.2456 150.965 25.9056 150.965C25.5789 150.965 25.2856 151.031 25.0256 151.165C24.7656 151.298 24.5556 151.508 24.3956 151.795C24.2423 152.081 24.1556 152.455 24.1356 152.915C24.1289 153.208 24.1256 153.475 24.1256 153.715C24.1256 153.948 24.1289 154.215 24.1356 154.515C24.1623 155.201 24.3389 155.698 24.6656 156.005C24.9923 156.311 25.4056 156.465 25.9056 156.465ZM30.1932 157.215C30.1198 157.215 30.0632 157.195 30.0232 157.155C29.9832 157.108 29.9632 157.051 29.9632 156.985V150.455C29.9632 150.381 29.9832 150.325 30.0232 150.285C30.0632 150.238 30.1198 150.215 30.1932 150.215H30.7032C30.7765 150.215 30.8332 150.238 30.8732 150.285C30.9198 150.325 30.9432 150.381 30.9432 150.455V153.215H34.3832V150.455C34.3832 150.381 34.4032 150.325 34.4432 150.285C34.4898 150.238 34.5465 150.215 34.6132 150.215H35.1232C35.1965 150.215 35.2532 150.238 35.2932 150.285C35.3398 150.325 35.3632 150.381 35.3632 150.455V156.985C35.3632 157.051 35.3398 157.108 35.2932 157.155C35.2532 157.195 35.1965 157.215 35.1232 157.215H34.6132C34.5465 157.215 34.4898 157.195 34.4432 157.155C34.4032 157.108 34.3832 157.051 34.3832 156.985V154.115H30.9432V156.985C30.9432 157.051 30.9198 157.108 30.8732 157.155C30.8332 157.195 30.7765 157.215 30.7032 157.215H30.1932ZM37.1221 157.215C37.0487 157.215 36.9921 157.195 36.9521 157.155C36.9121 157.108 36.8921 157.051 36.8921 156.985V150.455C36.8921 150.381 36.9121 150.325 36.9521 150.285C36.9921 150.238 37.0487 150.215 37.1221 150.215H37.5821C37.6621 150.215 37.7221 150.235 37.7621 150.275C37.8021 150.308 37.8254 150.335 37.8321 150.355L41.1521 155.455V150.455C41.1521 150.381 41.1721 150.325 41.2121 150.285C41.2521 150.238 41.3087 150.215 41.3821 150.215H41.8621C41.9354 150.215 41.9921 150.238 42.0321 150.285C42.0787 150.325 42.1021 150.381 42.1021 150.455V156.975C42.1021 157.041 42.0787 157.098 42.0321 157.145C41.9921 157.191 41.9387 157.215 41.8721 157.215H41.3921C41.3187 157.215 41.2621 157.195 41.2221 157.155C41.1887 157.115 41.1654 157.088 41.1521 157.075L37.8421 152.025V156.985C37.8421 157.051 37.8187 157.108 37.7721 157.155C37.7321 157.195 37.6754 157.215 37.6021 157.215H37.1221ZM48.4266 157.315C47.8399 157.315 47.3399 157.205 46.9266 156.985C46.5199 156.765 46.2066 156.455 45.9866 156.055C45.7733 155.655 45.6533 155.185 45.6266 154.645C45.6199 154.351 45.6166 154.041 45.6166 153.715C45.6166 153.381 45.6199 153.065 45.6266 152.765C45.6533 152.225 45.7733 151.758 45.9866 151.365C46.2066 150.971 46.5233 150.665 46.9366 150.445C47.3499 150.225 47.8466 150.115 48.4266 150.115C48.8999 150.115 49.3099 150.181 49.6566 150.315C50.0033 150.448 50.2866 150.618 50.5066 150.825C50.7333 151.025 50.8999 151.235 51.0066 151.455C51.1199 151.675 51.1799 151.868 51.1866 152.035C51.1933 152.095 51.1766 152.145 51.1366 152.185C51.0966 152.218 51.0433 152.235 50.9766 152.235H50.3866C50.3199 152.235 50.2699 152.221 50.2366 152.195C50.2099 152.168 50.1833 152.121 50.1566 152.055C50.0966 151.881 49.9966 151.711 49.8566 151.545C49.7233 151.378 49.5399 151.241 49.3066 151.135C49.0799 151.021 48.7866 150.965 48.4266 150.965C47.8999 150.965 47.4733 151.108 47.1466 151.395C46.8266 151.681 46.6533 152.155 46.6266 152.815C46.6066 153.408 46.6066 154.001 46.6266 154.595C46.6533 155.261 46.8299 155.741 47.1566 156.035C47.4833 156.321 47.9099 156.465 48.4366 156.465C48.7899 156.465 49.1033 156.401 49.3766 156.275C49.6566 156.141 49.8766 155.938 50.0366 155.665C50.1966 155.391 50.2766 155.045 50.2766 154.625V154.205H48.7766C48.7099 154.205 48.6533 154.185 48.6066 154.145C48.5666 154.098 48.5466 154.038 48.5466 153.965V153.645C48.5466 153.571 48.5666 153.515 48.6066 153.475C48.6533 153.428 48.7099 153.405 48.7766 153.405H51.0366C51.1099 153.405 51.1666 153.428 51.2066 153.475C51.2466 153.515 51.2666 153.571 51.2666 153.645V154.605C51.2666 155.151 51.1533 155.628 50.9266 156.035C50.7066 156.441 50.3833 156.758 49.9566 156.985C49.5299 157.205 49.0199 157.315 48.4266 157.315ZM52.7232 157.215C52.6499 157.215 52.5932 157.195 52.5532 157.155C52.5132 157.108 52.4932 157.051 52.4932 156.985V150.455C52.4932 150.381 52.5132 150.325 52.5532 150.285C52.5932 150.238 52.6499 150.215 52.7232 150.215H55.1632C55.9166 150.215 56.5132 150.391 56.9532 150.745C57.3932 151.098 57.6132 151.621 57.6132 152.315C57.6132 152.828 57.4832 153.248 57.2232 153.575C56.9699 153.895 56.6232 154.118 56.1832 154.245L57.7232 156.905C57.7432 156.945 57.7532 156.981 57.7532 157.015C57.7532 157.068 57.7299 157.115 57.6832 157.155C57.6432 157.195 57.5966 157.215 57.5432 157.215H57.0632C56.9499 157.215 56.8666 157.185 56.8132 157.125C56.7599 157.065 56.7132 157.005 56.6732 156.945L55.2232 154.405H53.4732V156.985C53.4732 157.051 53.4499 157.108 53.4032 157.155C53.3632 157.195 53.3066 157.215 53.2332 157.215H52.7232ZM53.4732 153.555H55.1232C55.6232 153.555 55.9966 153.451 56.2432 153.245C56.4899 153.031 56.6132 152.718 56.6132 152.305C56.6132 151.898 56.4899 151.588 56.2432 151.375C56.0032 151.161 55.6299 151.055 55.1232 151.055H53.4732V153.555ZM59.076 157.215C59.0026 157.215 58.946 157.195 58.906 157.155C58.866 157.108 58.846 157.051 58.846 156.985V150.445C58.846 150.378 58.866 150.325 58.906 150.285C58.946 150.238 59.0026 150.215 59.076 150.215H59.606C59.6726 150.215 59.726 150.238 59.766 150.285C59.8126 150.325 59.836 150.378 59.836 150.445V156.985C59.836 157.051 59.8126 157.108 59.766 157.155C59.726 157.195 59.6726 157.215 59.606 157.215H59.076ZM61.6104 157.215C61.537 157.215 61.4804 157.195 61.4404 157.155C61.4004 157.108 61.3804 157.051 61.3804 156.985V150.455C61.3804 150.381 61.4004 150.325 61.4404 150.285C61.4804 150.238 61.537 150.215 61.6104 150.215H65.6904C65.7637 150.215 65.8204 150.238 65.8604 150.285C65.9004 150.325 65.9204 150.381 65.9204 150.455V150.855C65.9204 150.928 65.9004 150.985 65.8604 151.025C65.8204 151.065 65.7637 151.085 65.6904 151.085H62.3504V153.415H65.4904C65.5637 153.415 65.6204 153.438 65.6604 153.485C65.7004 153.525 65.7204 153.581 65.7204 153.655V154.055C65.7204 154.121 65.7004 154.178 65.6604 154.225C65.6204 154.265 65.5637 154.285 65.4904 154.285H62.3504V156.985C62.3504 157.051 62.327 157.108 62.2804 157.155C62.2404 157.195 62.1837 157.215 62.1104 157.215H61.6104ZM67.2502 157.215C67.1769 157.215 67.1202 157.195 67.0802 157.155C67.0402 157.108 67.0202 157.051 67.0202 156.985V150.455C67.0202 150.381 67.0402 150.325 67.0802 150.285C67.1202 150.238 67.1769 150.215 67.2502 150.215H71.3302C71.4035 150.215 71.4602 150.238 71.5002 150.285C71.5402 150.325 71.5602 150.381 71.5602 150.455V150.855C71.5602 150.928 71.5402 150.985 71.5002 151.025C71.4602 151.065 71.4035 151.085 71.3302 151.085H67.9902V153.415H71.1302C71.2035 153.415 71.2602 153.438 71.3002 153.485C71.3402 153.525 71.3602 153.581 71.3602 153.655V154.055C71.3602 154.121 71.3402 154.178 71.3002 154.225C71.2602 154.265 71.2035 154.285 71.1302 154.285H67.9902V156.985C67.9902 157.051 67.9669 157.108 67.9202 157.155C67.8802 157.195 67.8235 157.215 67.7502 157.215H67.2502ZM72.89 157.215C72.8167 157.215 72.76 157.195 72.72 157.155C72.68 157.108 72.66 157.051 72.66 156.985V150.445C72.66 150.378 72.68 150.325 72.72 150.285C72.76 150.238 72.8167 150.215 72.89 150.215H73.42C73.4867 150.215 73.54 150.238 73.58 150.285C73.6267 150.325 73.65 150.378 73.65 150.445V156.985C73.65 157.051 73.6267 157.108 73.58 157.155C73.54 157.195 73.4867 157.215 73.42 157.215H72.89ZM75.4244 157.215C75.3511 157.215 75.2944 157.195 75.2544 157.155C75.2144 157.108 75.1944 157.051 75.1944 156.985V150.455C75.1944 150.381 75.2144 150.325 75.2544 150.285C75.2944 150.238 75.3511 150.215 75.4244 150.215H75.8844C75.9644 150.215 76.0244 150.235 76.0644 150.275C76.1044 150.308 76.1277 150.335 76.1344 150.355L79.4544 155.455V150.455C79.4544 150.381 79.4744 150.325 79.5144 150.285C79.5544 150.238 79.6111 150.215 79.6844 150.215H80.1644C80.2377 150.215 80.2944 150.238 80.3344 150.285C80.3811 150.325 80.4044 150.381 80.4044 150.455V156.975C80.4044 157.041 80.3811 157.098 80.3344 157.145C80.2944 157.191 80.2411 157.215 80.1744 157.215H79.6944C79.6211 157.215 79.5644 157.195 79.5244 157.155C79.4911 157.115 79.4677 157.088 79.4544 157.075L76.1444 152.025V156.985C76.1444 157.051 76.1211 157.108 76.0744 157.155C76.0344 157.195 75.9777 157.215 75.9044 157.215H75.4244Z" fill="white"/>
<path d="M18.3735 130.111V134.475H17.8451V130.665H17.8195L16.7542 131.373V130.836L17.8451 130.111H18.3735ZM19.5085 134.475V134.091L20.9488 132.515C21.1178 132.33 21.257 132.169 21.3664 132.033C21.4758 131.895 21.5568 131.766 21.6093 131.645C21.6633 131.523 21.6903 131.395 21.6903 131.262C21.6903 131.108 21.6533 130.976 21.5795 130.863C21.507 130.751 21.4076 130.664 21.2812 130.603C21.1548 130.542 21.0127 130.512 20.8551 130.512C20.6874 130.512 20.5411 130.547 20.4161 130.616C20.2926 130.684 20.1967 130.78 20.1285 130.904C20.0617 131.027 20.0283 131.172 20.0283 131.338H19.5255C19.5255 131.083 19.5845 130.858 19.7024 130.665C19.8203 130.472 19.9808 130.321 20.1839 130.213C20.3884 130.106 20.6178 130.052 20.8721 130.052C21.1278 130.052 21.3543 130.106 21.5518 130.213C21.7492 130.321 21.9041 130.467 22.0163 130.65C22.1285 130.834 22.1846 131.037 22.1846 131.262C22.1846 131.422 22.1555 131.579 22.0972 131.733C22.0404 131.885 21.941 132.054 21.7989 132.242C21.6583 132.428 21.463 132.655 21.213 132.924L20.2329 133.972V134.006H22.2613V134.475H19.5085ZM24.5724 129.907L23.1662 135.131H22.7059L24.1122 129.907H24.5724ZM25.0399 134.475V134.091L26.4803 132.515C26.6493 132.33 26.7885 132.169 26.8979 132.033C27.0073 131.895 27.0882 131.766 27.1408 131.645C27.1948 131.523 27.2218 131.395 27.2218 131.262C27.2218 131.108 27.1848 130.976 27.111 130.863C27.0385 130.751 26.9391 130.664 26.8127 130.603C26.6863 130.542 26.5442 130.512 26.3865 130.512C26.2189 130.512 26.0726 130.547 25.9476 130.616C25.824 130.684 25.7282 130.78 25.66 130.904C25.5932 131.027 25.5598 131.172 25.5598 131.338H25.057C25.057 131.083 25.1159 130.858 25.2338 130.665C25.3517 130.472 25.5122 130.321 25.7154 130.213C25.9199 130.106 26.1493 130.052 26.4036 130.052C26.6593 130.052 26.8858 130.106 27.0833 130.213C27.2807 130.321 27.4355 130.467 27.5478 130.65C27.66 130.834 27.7161 131.037 27.7161 131.262C27.7161 131.422 27.687 131.579 27.6287 131.733C27.5719 131.885 27.4725 132.054 27.3304 132.242C27.1898 132.428 26.9945 132.655 26.7445 132.924L25.7644 133.972V134.006H27.7928V134.475H25.0399ZM28.6891 134.475L30.6408 130.614V130.58H28.3908V130.111H31.1863V130.606L29.2431 134.475H28.6891Z" fill="white"/>
<path d="M16.4854 123.813L16.7126 124.454H16.719L16.9463 123.813H17.0159L16.7513 124.54H16.6803L16.4157 123.813H16.4854ZM17.0591 124.54H16.9895L17.2541 123.813H17.3251L17.5896 124.54H17.52L17.2921 123.899H17.2871L17.0591 124.54ZM17.1092 124.261H17.47V124.321H17.1092V124.261ZM17.6943 124.54V123.813H17.7607V124.48H18.1073V124.54H17.6943ZM18.3032 123.813V124.54H18.2368V123.813H18.3032ZM18.6896 124.54H18.4766V123.813H18.7024C18.7718 123.813 18.8311 123.827 18.8803 123.856C18.9298 123.885 18.9677 123.926 18.994 123.98C19.0202 124.034 19.0334 124.099 19.0334 124.175C19.0334 124.251 19.0199 124.316 18.9929 124.371C18.9661 124.425 18.9271 124.467 18.8757 124.496C18.8246 124.525 18.7625 124.54 18.6896 124.54ZM18.543 124.48H18.6857C18.7482 124.48 18.8005 124.468 18.8427 124.443C18.8848 124.419 18.9164 124.384 18.9375 124.338C18.9586 124.292 18.9691 124.238 18.9691 124.175C18.9689 124.112 18.9584 124.058 18.9378 124.013C18.9175 123.967 18.8872 123.933 18.8469 123.909C18.8069 123.884 18.7574 123.872 18.6985 123.872H18.543V124.48ZM19.3915 123.872V123.813H19.9189V123.872H19.6884V124.54H19.622V123.872H19.3915ZM20.0484 124.54V123.813H20.1148V124.146H20.5274V123.813H20.5938V124.54H20.5274V124.206H20.1148V124.54H20.0484ZM20.7667 124.54V123.813H21.0014C21.053 123.813 21.0961 123.822 21.1307 123.841C21.1655 123.859 21.1916 123.885 21.2091 123.918C21.2269 123.951 21.2358 123.988 21.2358 124.03C21.2358 124.073 21.2269 124.11 21.2091 124.143C21.1916 124.175 21.1656 124.2 21.131 124.219C21.0965 124.237 21.0536 124.246 21.0025 124.246H20.8025V124.185H21.0007C21.0386 124.185 21.0701 124.179 21.0951 124.166C21.1205 124.154 21.1393 124.136 21.1516 124.113C21.1642 124.09 21.1704 124.062 21.1704 124.03C21.1704 123.999 21.1642 123.971 21.1516 123.947C21.1391 123.923 21.1201 123.905 21.0948 123.892C21.0697 123.879 21.038 123.872 20.9996 123.872H20.8331V124.54H20.7667ZM21.0873 124.212L21.2663 124.54H21.1896L21.0124 124.212H21.0873ZM21.8623 123.813H21.9287V124.294C21.9287 124.344 21.9171 124.388 21.8939 124.427C21.8707 124.466 21.8383 124.497 21.7969 124.519C21.7557 124.541 21.7078 124.552 21.6531 124.552C21.5986 124.552 21.5507 124.541 21.5093 124.519C21.4678 124.496 21.4355 124.466 21.4123 124.427C21.3891 124.388 21.3775 124.344 21.3775 124.294V123.813H21.4439V124.29C21.4439 124.328 21.4526 124.363 21.4699 124.393C21.4871 124.423 21.5114 124.447 21.5427 124.464C21.5741 124.481 21.611 124.49 21.6531 124.49C21.6952 124.49 21.7321 124.481 21.7635 124.464C21.795 124.447 21.8193 124.423 21.8363 124.393C21.8536 124.363 21.8623 124.328 21.8623 124.29V123.813Z" fill="white"/>
<g clip-path="url(#clip0_3147_2916)">
<path d="M246.884 161.796V159.704C246.884 158.902 246.391 158.379 245.545 158.379C245.122 158.379 244.664 158.518 244.347 158.972C244.1 158.588 243.748 158.379 243.22 158.379C242.867 158.379 242.515 158.483 242.233 158.867V158.449H241.493V161.796H242.233V159.948C242.233 159.355 242.55 159.076 243.044 159.076C243.537 159.076 243.783 159.39 243.783 159.948V161.796H244.523V159.948C244.523 159.355 244.876 159.076 245.334 159.076C245.827 159.076 246.073 159.39 246.073 159.948V161.796H246.884ZM257.841 158.449H256.644V157.438H255.904V158.449H255.234V159.111H255.904V160.645C255.904 161.412 256.221 161.865 257.066 161.865C257.384 161.865 257.736 161.761 257.982 161.622L257.771 160.994C257.56 161.133 257.313 161.168 257.137 161.168C256.785 161.168 256.644 160.959 256.644 160.61V159.111H257.841V158.449ZM264.113 158.379C263.69 158.379 263.408 158.588 263.232 158.867V158.449H262.492V161.796H263.232V159.913C263.232 159.355 263.479 159.041 263.937 159.041C264.078 159.041 264.254 159.076 264.395 159.111L264.606 158.414C264.465 158.379 264.254 158.379 264.113 158.379V158.379ZM254.635 158.728C254.283 158.483 253.79 158.379 253.261 158.379C252.416 158.379 251.852 158.797 251.852 159.46C251.852 160.018 252.275 160.331 253.015 160.436L253.367 160.471C253.754 160.541 253.966 160.645 253.966 160.82C253.966 161.064 253.684 161.238 253.191 161.238C252.697 161.238 252.31 161.064 252.063 160.889L251.711 161.447C252.098 161.726 252.627 161.865 253.155 161.865C254.142 161.865 254.706 161.412 254.706 160.785C254.706 160.192 254.248 159.878 253.543 159.774L253.191 159.739C252.873 159.704 252.627 159.634 252.627 159.425C252.627 159.181 252.873 159.041 253.261 159.041C253.684 159.041 254.107 159.216 254.318 159.32L254.635 158.728ZM274.296 158.379C273.873 158.379 273.591 158.588 273.415 158.867V158.449H272.675V161.796H273.415V159.913C273.415 159.355 273.661 159.041 274.119 159.041C274.26 159.041 274.437 159.076 274.577 159.111L274.789 158.414C274.648 158.379 274.437 158.379 274.296 158.379ZM264.853 160.122C264.853 161.133 265.558 161.865 266.65 161.865C267.143 161.865 267.495 161.761 267.848 161.482L267.495 160.889C267.214 161.099 266.932 161.203 266.615 161.203C266.016 161.203 265.593 160.785 265.593 160.122C265.593 159.495 266.016 159.076 266.615 159.041C266.932 159.041 267.214 159.146 267.495 159.355L267.848 158.763C267.495 158.483 267.143 158.379 266.65 158.379C265.558 158.379 264.853 159.111 264.853 160.122ZM271.688 160.122V158.449H270.948V158.867C270.702 158.553 270.349 158.379 269.891 158.379C268.94 158.379 268.2 159.111 268.2 160.122C268.2 161.133 268.94 161.865 269.891 161.865C270.385 161.865 270.737 161.691 270.948 161.377V161.796H271.688V160.122ZM268.975 160.122C268.975 159.529 269.363 159.041 269.997 159.041C270.596 159.041 271.019 159.495 271.019 160.122C271.019 160.715 270.596 161.203 269.997 161.203C269.363 161.168 268.975 160.715 268.975 160.122ZM260.132 158.379C259.145 158.379 258.44 159.076 258.44 160.122C258.44 161.168 259.145 161.865 260.167 161.865C260.66 161.865 261.153 161.726 261.541 161.412L261.189 160.889C260.907 161.099 260.554 161.238 260.202 161.238C259.744 161.238 259.286 161.029 259.18 160.436H261.682V160.157C261.717 159.076 261.083 158.379 260.132 158.379H260.132ZM260.132 159.006C260.59 159.006 260.907 159.286 260.977 159.809H259.216C259.286 159.355 259.603 159.006 260.132 159.006ZM278.488 160.122V157.124H277.748V158.867C277.502 158.553 277.149 158.379 276.691 158.379C275.74 158.379 275 159.111 275 160.122C275 161.133 275.74 161.865 276.691 161.865C277.185 161.865 277.537 161.691 277.748 161.377V161.796H278.488V160.122ZM275.775 160.122C275.775 159.529 276.163 159.041 276.797 159.041C277.396 159.041 277.819 159.495 277.819 160.122C277.819 160.715 277.396 161.203 276.797 161.203C276.163 161.168 275.775 160.715 275.775 160.122ZM251.041 160.122V158.449H250.301V158.867C250.055 158.553 249.703 158.379 249.244 158.379C248.293 158.379 247.553 159.111 247.553 160.122C247.553 161.133 248.293 161.865 249.244 161.865C249.738 161.865 250.09 161.691 250.301 161.377V161.796H251.041V160.122ZM248.293 160.122C248.293 159.529 248.681 159.041 249.315 159.041C249.914 159.041 250.337 159.495 250.337 160.122C250.337 160.715 249.914 161.203 249.315 161.203C248.681 161.168 248.293 160.715 248.293 160.122Z" fill="white"/>
<path d="M254.389 133.031H265.487V152.766H254.389V133.031Z" fill="#FF5F00"/>
<path d="M255.094 142.899C255.094 138.889 256.996 135.333 259.92 133.032C257.771 131.358 255.058 130.347 252.099 130.347C245.087 130.347 239.415 135.96 239.415 142.899C239.415 149.837 245.087 155.45 252.099 155.45C255.058 155.45 257.771 154.439 259.92 152.766C256.996 150.499 255.094 146.908 255.094 142.899Z" fill="#EB001B"/>
<path d="M280.461 142.899C280.461 149.837 274.789 155.45 267.777 155.45C264.818 155.45 262.105 154.439 259.956 152.766C262.915 150.464 264.783 146.908 264.783 142.899C264.783 138.889 262.88 135.333 259.956 133.032C262.105 131.358 264.818 130.347 267.777 130.347C274.789 130.347 280.462 135.995 280.462 142.899H280.461Z" fill="#F79E1B"/>
</g>
<defs>
<filter id="filter0_b_3147_2916" x="-50" y="-49.2373" width="390.774" height="270.672" filterUnits="userSpaceOnUse" color-interpolation-filters="sRGB">
<feFlood flood-opacity="0" result="BackgroundImageFix"/>
<feGaussianBlur in="BackgroundImageFix" stdDeviation="25"/>
<feComposite in2="SourceAlpha" operator="in" result="effect1_backgroundBlur_3147_2916"/>
<feBlend mode="normal" in="SourceGraphic" in2="effect1_backgroundBlur_3147_2916" result="shape"/>
</filter>
<linearGradient id="paint0_linear_3147_2916" x1="3.52149" y1="5.20214" x2="287.828" y2="176.331" gradientUnits="userSpaceOnUse">
<stop stop-color="#C9C9C9" stop-opacity="0.8"/>
<stop offset="1" stop-color="#C4C4C4" stop-opacity="0.1"/>
</linearGradient>
<linearGradient id="paint1_linear_3147_2916" x1="2.17738e-06" y1="5.20214" x2="287.934" y2="172.859" gradientUnits="userSpaceOnUse">
<stop stop-color="white" stop-opacity="0.8"/>
<stop offset="1" stop-color="#D3D3D3" stop-opacity="0.1"/>
</linearGradient>
<clipPath id="clip0_3147_2916">
<rect width="41.0877" height="31.6059" fill="white" transform="translate(239.415 130.347)"/>
</clipPath>
</defs>
</svg>
