<svg width="36" height="36" viewBox="0 0 36 36" fill="none" xmlns="http://www.w3.org/2000/svg">
<g opacity="0.2">
<path fill-rule="evenodd" clip-rule="evenodd" d="M14.1771 11.5931C13.148 12.1634 11.8857 12.1552 10.8645 11.5716L10.8195 11.5277C10.36 11.2487 10.2191 10.6589 10.5047 10.2101C10.7904 9.76143 11.3944 9.62379 11.8539 9.90272C12.059 10.0196 12.2911 10.0838 12.5285 10.0894C12.8924 10.1042 13.2474 9.97718 13.5152 9.73621C13.7831 9.49524 13.9418 9.16014 13.9564 8.80479C13.9495 7.01931 15.4006 5.55355 17.2282 5.5H18.7686C20.6314 5.5 22.1416 6.97469 22.1416 8.79381C22.1385 9.02535 22.2008 9.25324 22.3215 9.45257C22.5005 9.76116 22.7985 9.987 23.1491 10.0798C23.4997 10.1726 23.8737 10.1247 24.1878 9.94664C25.7706 9.10523 27.7512 9.62741 28.6852 11.1324C28.9433 11.5917 28.7846 12.168 28.3254 12.439C27.8587 12.6991 27.2648 12.548 26.9874 12.0986C26.6064 11.4648 25.7735 11.2493 25.121 11.6155C24.0886 12.1676 22.836 12.1541 21.8162 11.5799C20.7965 11.0058 20.157 9.95396 20.129 8.80479C20.1412 8.4449 20.0033 8.0956 19.7468 7.83687C19.4903 7.57815 19.1373 7.43217 18.7686 7.43237H17.2282C16.8585 7.43226 16.5044 7.57789 16.2462 7.83627C15.9879 8.09464 15.8474 8.44386 15.8565 8.80479C15.8461 9.96023 15.2061 11.0227 14.1771 11.5931ZM15.8567 27.2392C15.8629 27.9747 16.4752 28.5677 17.2284 28.5677L17.2172 28.5896C17.5666 28.5896 17.8896 28.7717 18.0643 29.0672C18.239 29.3628 18.239 29.7269 18.0643 30.0224C17.8896 30.318 17.5666 30.5 17.2172 30.5C15.3543 30.5 13.8442 29.0254 13.8442 27.2062C13.8472 26.9747 13.785 26.7468 13.6643 26.5475C13.2871 25.9097 12.4533 25.689 11.7979 26.0534C10.2151 26.8948 8.23459 26.3726 7.30057 24.8676L6.53602 23.5611C5.67438 22.0155 6.20912 20.0814 7.7503 19.1693C7.95457 19.052 8.12483 18.8857 8.24501 18.6863C8.4705 18.3793 8.55153 17.9932 8.46785 17.6244C8.38416 17.2556 8.14367 16.9391 7.80652 16.7539C6.26534 15.8418 5.7306 13.9078 6.59224 12.3621C6.73641 12.1505 6.96103 12.0037 7.21637 11.9542C7.47171 11.9048 7.7367 11.9567 7.95268 12.0986C8.37934 12.3819 8.50304 12.9425 8.23377 13.3722C7.86163 14.009 8.08807 14.8197 8.73972 15.1838C9.22931 15.4768 9.63231 15.8893 9.90902 16.3806C10.7707 17.9262 10.2359 19.8602 8.69474 20.7723C8.04309 21.1364 7.81666 21.9472 8.18879 22.5839L8.96458 23.8905C9.1411 24.2018 9.44004 24.4294 9.79231 24.5206C10.1446 24.6117 10.5197 24.5587 10.831 24.3736C11.3329 24.0893 11.9036 23.9414 12.4837 23.9454C14.3466 23.9454 15.8567 25.4201 15.8567 27.2392ZM28.2353 19.1583C27.9212 18.9816 27.6924 18.6898 27.5995 18.3476C27.5066 18.0054 27.5574 17.6412 27.7406 17.3358C27.8608 17.1363 28.0311 16.97 28.2353 16.8527C28.6968 16.582 28.8475 15.9981 28.5726 15.5461C28.2995 15.1 27.7165 14.9408 27.2459 15.1838C25.7048 16.0959 25.17 18.0299 26.0317 19.5756C26.3053 20.1155 26.7303 20.5686 27.2572 20.8821C27.5705 21.0567 27.7992 21.3466 27.8922 21.687C27.9851 22.0274 27.9346 22.3899 27.7519 22.6937L26.9873 24.0002C26.8032 24.306 26.5051 24.5303 26.1553 24.6261C25.805 24.7173 25.4317 24.6658 25.1209 24.4833C24.0867 23.9304 22.8319 23.945 21.8115 24.5218C20.791 25.0986 20.1531 26.1539 20.1289 27.305C20.1827 27.796 20.607 28.1684 21.1127 28.1684C21.6184 28.1684 22.0427 27.796 22.0965 27.305C22.0872 26.8253 22.3457 26.3786 22.7712 26.1389C23.1968 25.8991 23.7222 25.9042 24.1428 26.1522C25.7256 26.9936 27.7061 26.4714 28.6401 24.9664L29.4047 23.6599C30.3487 22.1007 29.8263 20.0896 28.2353 19.1583ZM17.9927 13.8772C16.2819 13.8772 14.7397 14.8842 14.086 16.4282C13.4323 17.9722 13.7961 19.7486 15.0074 20.9284C16.2188 22.1082 18.039 22.4587 19.6183 21.8163C21.1977 21.1739 22.2248 19.6652 22.2202 17.9945C22.2202 16.9006 21.7745 15.8517 20.9813 15.0792C20.1882 14.3068 19.1129 13.8743 17.9927 13.8772ZM17.9928 20.2013C16.7509 20.2013 15.7441 19.2182 15.7441 18.0055C15.7441 16.7927 16.7509 15.8096 17.9928 15.8096C19.2347 15.8096 20.2415 16.7927 20.2415 18.0055C20.2415 19.2182 19.2347 20.2013 17.9928 20.2013Z" fill="white"/>
</g>
</svg>
