<svg width="46" height="46" viewBox="0 0 46 46" fill="none" xmlns="http://www.w3.org/2000/svg">
<g opacity="0.2">
<path d="M40.25 19.1667C40.25 32.5833 23 44.0833 23 44.0833C23 44.0833 5.75 32.5833 5.75 19.1667C5.75 14.5917 7.56741 10.2041 10.8024 6.96907C14.0374 3.73407 18.425 1.91667 23 1.91667C27.575 1.91667 31.9626 3.73407 35.1976 6.96907C38.4326 10.2041 40.25 14.5917 40.25 19.1667Z" stroke="white" stroke-width="2" stroke-linecap="round" stroke-linejoin="round"/>
<path d="M23 24.9167C26.1756 24.9167 28.75 22.3423 28.75 19.1667C28.75 15.991 26.1756 13.4167 23 13.4167C19.8244 13.4167 17.25 15.991 17.25 19.1667C17.25 22.3423 19.8244 24.9167 23 24.9167Z" stroke="white" stroke-width="2" stroke-linecap="round" stroke-linejoin="round"/>
</g>
</svg>
